<mxfile host="app.diagrams.net" agent="Mozilla/5.0 (Windows NT 10.0; Win64; x64; rv:133.0) Gecko/20100101 Firefox/133.0" version="25.0.3">
  <diagram id="6I0OCvxSQrVGMHxT2VVA" name="Page-1">
    <mxGraphModel dx="1434" dy="782" grid="1" gridSize="10" guides="1" tooltips="1" connect="1" arrows="1" fold="1" page="1" pageScale="1" pageWidth="1654" pageHeight="1169" math="0" shadow="0">
      <root>
        <mxCell id="0" />
        <mxCell id="1" parent="0" />
        <mxCell id="dKdSaXE48SgPbhcamS2K-58" value="Technology" style="text;html=1;strokeColor=none;fillColor=none;align=center;verticalAlign=middle;whiteSpace=wrap;fontSize=14;" parent="1" vertex="1">
          <mxGeometry x="1259" y="890" width="240" height="20" as="geometry" />
        </mxCell>
        <mxCell id="dKdSaXE48SgPbhcamS2K-59" value="Application" style="text;html=1;strokeColor=none;fillColor=none;align=center;verticalAlign=middle;whiteSpace=wrap;fontSize=14;" parent="1" vertex="1">
          <mxGeometry x="1240" y="800" width="240" height="20" as="geometry" />
        </mxCell>
        <mxCell id="dKdSaXE48SgPbhcamS2K-60" value="Business" style="text;html=1;strokeColor=none;fillColor=none;align=center;verticalAlign=middle;whiteSpace=wrap;fontSize=14;" parent="1" vertex="1">
          <mxGeometry x="1259" y="510" width="240" height="20" as="geometry" />
        </mxCell>
        <mxCell id="dKdSaXE48SgPbhcamS2K-63" value="Title" style="text;strokeColor=none;fillColor=none;html=1;fontSize=24;fontStyle=1;verticalAlign=middle;align=center;" parent="1" vertex="1">
          <mxGeometry x="50" y="70" width="1590" height="40" as="geometry" />
        </mxCell>
        <mxCell id="eNobzMMhauN4BnxFjJXC-1" value="Melder" style="html=1;outlineConnect=0;whiteSpace=wrap;fillColor=#ffff99;shape=mxgraph.archimate3.application;appType=role;archiType=square;" vertex="1" parent="1">
          <mxGeometry x="880" y="585" width="150" height="75" as="geometry" />
        </mxCell>
        <mxCell id="eNobzMMhauN4BnxFjJXC-2" value="Afhandelaar" style="html=1;outlineConnect=0;whiteSpace=wrap;fillColor=#ffff99;shape=mxgraph.archimate3.application;appType=role;archiType=square;" vertex="1" parent="1">
          <mxGeometry x="880" y="475" width="150" height="75" as="geometry" />
        </mxCell>
        <mxCell id="eNobzMMhauN4BnxFjJXC-3" value="Business Role" style="html=1;outlineConnect=0;whiteSpace=wrap;fillColor=#ffff99;shape=mxgraph.archimate3.application;appType=role;archiType=square;" vertex="1" parent="1">
          <mxGeometry x="480" y="280" width="150" height="75" as="geometry" />
        </mxCell>
        <mxCell id="eNobzMMhauN4BnxFjJXC-4" value="Business Role" style="html=1;outlineConnect=0;whiteSpace=wrap;fillColor=#ffff99;shape=mxgraph.archimate3.application;appType=role;archiType=square;" vertex="1" parent="1">
          <mxGeometry x="640" y="280" width="150" height="75" as="geometry" />
        </mxCell>
        <mxCell id="eNobzMMhauN4BnxFjJXC-5" value="Medewerker buitendienst" style="html=1;outlineConnect=0;whiteSpace=wrap;fillColor=#ffff99;shape=mxgraph.archimate3.application;appType=actor;archiType=square;" vertex="1" parent="1">
          <mxGeometry x="320" y="180" width="150" height="75" as="geometry" />
        </mxCell>
        <mxCell id="eNobzMMhauN4BnxFjJXC-6" value="Beleidsmedewerker" style="html=1;outlineConnect=0;whiteSpace=wrap;fillColor=#ffff99;shape=mxgraph.archimate3.application;appType=actor;archiType=square;" vertex="1" parent="1">
          <mxGeometry x="480" y="180" width="150" height="75" as="geometry" />
        </mxCell>
        <mxCell id="eNobzMMhauN4BnxFjJXC-7" value="Aannemer" style="html=1;outlineConnect=0;whiteSpace=wrap;fillColor=#ffff99;shape=mxgraph.archimate3.application;appType=actor;archiType=square;" vertex="1" parent="1">
          <mxGeometry x="640" y="180" width="150" height="75" as="geometry" />
        </mxCell>
        <mxCell id="eNobzMMhauN4BnxFjJXC-8" value="Inwoner" style="html=1;outlineConnect=0;whiteSpace=wrap;fillColor=#ffff99;shape=mxgraph.archimate3.application;appType=actor;archiType=square;" vertex="1" parent="1">
          <mxGeometry x="160" y="180" width="150" height="75" as="geometry" />
        </mxCell>
        <mxCell id="eNobzMMhauN4BnxFjJXC-9" value="Signaal" style="html=1;outlineConnect=0;whiteSpace=wrap;fillColor=#ffff99;shape=mxgraph.archimate3.businessObject;overflow=fill;" vertex="1" parent="1">
          <mxGeometry x="370" y="560" width="150" height="75" as="geometry" />
        </mxCell>
        <mxCell id="eNobzMMhauN4BnxFjJXC-10" value="&lt;i&gt;&lt;u&gt;business object&lt;/u&gt;&lt;/i&gt;" style="text;strokeColor=none;align=center;fillColor=none;html=1;verticalAlign=middle;whiteSpace=wrap;rounded=0;" vertex="1" parent="1">
          <mxGeometry x="160" y="445" width="150" height="30" as="geometry" />
        </mxCell>
        <mxCell id="eNobzMMhauN4BnxFjJXC-11" value="Front-end GUI" style="html=1;outlineConnect=0;whiteSpace=wrap;fillColor=#99ffff;shape=mxgraph.archimate3.application;appType=interface;archiType=square;" vertex="1" parent="1">
          <mxGeometry x="860" y="710" width="150" height="75" as="geometry" />
        </mxCell>
        <mxCell id="eNobzMMhauN4BnxFjJXC-12" value="Backend API" style="html=1;outlineConnect=0;whiteSpace=wrap;fillColor=#99ffff;shape=mxgraph.archimate3.application;appType=interface;archiType=square;" vertex="1" parent="1">
          <mxGeometry x="860" y="835" width="150" height="75" as="geometry" />
        </mxCell>
        <mxCell id="eNobzMMhauN4BnxFjJXC-14" value="Signalen CRUD" style="html=1;outlineConnect=0;whiteSpace=wrap;fillColor=#99ffff;shape=mxgraph.archimate3.application;appType=func;archiType=rounded;" vertex="1" parent="1">
          <mxGeometry x="620" y="960" width="150" height="75" as="geometry" />
        </mxCell>
        <mxCell id="eNobzMMhauN4BnxFjJXC-16" value="Signalen CRUD service" style="html=1;outlineConnect=0;whiteSpace=wrap;fillColor=#99ffff;shape=mxgraph.archimate3.application;appType=serv;archiType=rounded" vertex="1" parent="1">
          <mxGeometry x="620" y="835" width="150" height="75" as="geometry" />
        </mxCell>
        <mxCell id="eNobzMMhauN4BnxFjJXC-19" value="" style="endArrow=block;html=1;endFill=1;startArrow=oval;startFill=1;edgeStyle=elbowEdgeStyle;elbow=vertical;rounded=0;entryX=1;entryY=0.5;entryDx=0;entryDy=0;entryPerimeter=0;exitX=0;exitY=0.5;exitDx=0;exitDy=0;exitPerimeter=0;" edge="1" parent="1" source="eNobzMMhauN4BnxFjJXC-12" target="eNobzMMhauN4BnxFjJXC-16">
          <mxGeometry width="160" relative="1" as="geometry">
            <mxPoint x="730" y="890" as="sourcePoint" />
            <mxPoint x="890" y="890" as="targetPoint" />
          </mxGeometry>
        </mxCell>
        <mxCell id="eNobzMMhauN4BnxFjJXC-20" value="" style="html=1;startArrow=diamondThin;startFill=1;edgeStyle=elbowEdgeStyle;elbow=vertical;startSize=10;endArrow=none;endFill=0;rounded=0;exitX=0.5;exitY=0;exitDx=0;exitDy=0;exitPerimeter=0;" edge="1" parent="1" source="eNobzMMhauN4BnxFjJXC-29" target="eNobzMMhauN4BnxFjJXC-12">
          <mxGeometry width="160" relative="1" as="geometry">
            <mxPoint x="953.75" y="960" as="sourcePoint" />
            <mxPoint x="890" y="890" as="targetPoint" />
          </mxGeometry>
        </mxCell>
        <mxCell id="eNobzMMhauN4BnxFjJXC-21" value="" style="edgeStyle=elbowEdgeStyle;html=1;endArrow=block;elbow=vertical;endFill=0;dashed=1;rounded=0;entryX=0.5;entryY=1;entryDx=0;entryDy=0;entryPerimeter=0;exitX=0.5;exitY=0;exitDx=0;exitDy=0;exitPerimeter=0;" edge="1" parent="1" source="eNobzMMhauN4BnxFjJXC-14" target="eNobzMMhauN4BnxFjJXC-16">
          <mxGeometry width="160" relative="1" as="geometry">
            <mxPoint x="950" y="890" as="sourcePoint" />
            <mxPoint x="1110" y="890" as="targetPoint" />
          </mxGeometry>
        </mxCell>
        <mxCell id="eNobzMMhauN4BnxFjJXC-22" value="" style="endArrow=block;html=1;endFill=1;startArrow=oval;startFill=1;edgeStyle=elbowEdgeStyle;elbow=vertical;rounded=0;exitX=0.5;exitY=1;exitDx=0;exitDy=0;exitPerimeter=0;entryX=0.5;entryY=0;entryDx=0;entryDy=0;entryPerimeter=0;" edge="1" parent="1" source="eNobzMMhauN4BnxFjJXC-11" target="eNobzMMhauN4BnxFjJXC-12">
          <mxGeometry width="160" relative="1" as="geometry">
            <mxPoint x="730" y="890" as="sourcePoint" />
            <mxPoint x="950" y="820" as="targetPoint" />
          </mxGeometry>
        </mxCell>
        <mxCell id="eNobzMMhauN4BnxFjJXC-23" value="Signaal aanmaken" style="html=1;outlineConnect=0;whiteSpace=wrap;fillColor=#ffff99;shape=mxgraph.archimate3.application;appType=proc;archiType=rounded;" vertex="1" parent="1">
          <mxGeometry x="1130" y="410" width="150" height="75" as="geometry" />
        </mxCell>
        <mxCell id="eNobzMMhauN4BnxFjJXC-24" value="Signaal afhandelen" style="html=1;outlineConnect=0;whiteSpace=wrap;fillColor=#ffff99;shape=mxgraph.archimate3.application;appType=proc;archiType=rounded;" vertex="1" parent="1">
          <mxGeometry x="1370" y="355" width="150" height="75" as="geometry" />
        </mxCell>
        <mxCell id="eNobzMMhauN4BnxFjJXC-25" value="Signaal doorzetten" style="html=1;outlineConnect=0;whiteSpace=wrap;fillColor=#ffff99;shape=mxgraph.archimate3.application;appType=proc;archiType=rounded;" vertex="1" parent="1">
          <mxGeometry x="1370" y="475" width="150" height="75" as="geometry" />
        </mxCell>
        <mxCell id="eNobzMMhauN4BnxFjJXC-27" value="Signaal inzien" style="html=1;outlineConnect=0;whiteSpace=wrap;fillColor=#ffff99;shape=mxgraph.archimate3.application;appType=proc;archiType=rounded;" vertex="1" parent="1">
          <mxGeometry x="1280" y="250" width="150" height="75" as="geometry" />
        </mxCell>
        <mxCell id="eNobzMMhauN4BnxFjJXC-28" value="MOON" style="html=1;outlineConnect=0;whiteSpace=wrap;fillColor=#99ffff;shape=mxgraph.archimate3.application;appType=comp;archiType=square;" vertex="1" parent="1">
          <mxGeometry x="1100" y="970" width="150" height="75" as="geometry" />
        </mxCell>
        <mxCell id="eNobzMMhauN4BnxFjJXC-29" value="Django" style="html=1;outlineConnect=0;whiteSpace=wrap;fillColor=#99ffff;shape=mxgraph.archimate3.application;appType=comp;archiType=square;" vertex="1" parent="1">
          <mxGeometry x="860" y="960" width="150" height="75" as="geometry" />
        </mxCell>
        <mxCell id="eNobzMMhauN4BnxFjJXC-30" value="" style="ellipse;html=1;verticalLabelPosition=bottom;labelBackgroundColor=#ffffff;verticalAlign=top;fillColor=#ffffff" vertex="1" parent="1">
          <mxGeometry x="1320" y="440" width="10" height="10" as="geometry" />
        </mxCell>
        <mxCell id="eNobzMMhauN4BnxFjJXC-31" value="" style="edgeStyle=elbowEdgeStyle;html=1;endArrow=none;elbow=vertical;rounded=0;exitX=1;exitY=0.5;exitDx=0;exitDy=0;exitPerimeter=0;entryX=0;entryY=0.5;entryDx=0;entryDy=0;" edge="1" parent="1" source="eNobzMMhauN4BnxFjJXC-23" target="eNobzMMhauN4BnxFjJXC-30">
          <mxGeometry width="160" relative="1" as="geometry">
            <mxPoint x="1520" y="675" as="sourcePoint" />
            <mxPoint x="1320" y="448" as="targetPoint" />
          </mxGeometry>
        </mxCell>
        <mxCell id="eNobzMMhauN4BnxFjJXC-33" value="" style="edgeStyle=elbowEdgeStyle;html=1;endArrow=block;dashed=0;elbow=vertical;endFill=1;rounded=0;exitX=1;exitY=0.5;exitDx=0;exitDy=0;entryX=0;entryY=0.5;entryDx=0;entryDy=0;entryPerimeter=0;" edge="1" parent="1" source="eNobzMMhauN4BnxFjJXC-30" target="eNobzMMhauN4BnxFjJXC-24">
          <mxGeometry width="160" relative="1" as="geometry">
            <mxPoint x="1520" y="685" as="sourcePoint" />
            <mxPoint x="1680" y="685" as="targetPoint" />
          </mxGeometry>
        </mxCell>
        <mxCell id="eNobzMMhauN4BnxFjJXC-34" value="" style="edgeStyle=elbowEdgeStyle;html=1;endArrow=block;dashed=0;elbow=vertical;endFill=1;rounded=0;entryX=0;entryY=0.5;entryDx=0;entryDy=0;entryPerimeter=0;" edge="1" parent="1" target="eNobzMMhauN4BnxFjJXC-25">
          <mxGeometry width="160" relative="1" as="geometry">
            <mxPoint x="1330" y="445" as="sourcePoint" />
            <mxPoint x="1680" y="685" as="targetPoint" />
          </mxGeometry>
        </mxCell>
        <mxCell id="eNobzMMhauN4BnxFjJXC-35" value="" style="endArrow=block;html=1;endFill=1;startArrow=oval;startFill=1;edgeStyle=elbowEdgeStyle;elbow=vertical;rounded=0;exitX=0;exitY=0.5;exitDx=0;exitDy=0;exitPerimeter=0;entryX=1;entryY=0.5;entryDx=0;entryDy=0;entryPerimeter=0;" edge="1" parent="1" source="eNobzMMhauN4BnxFjJXC-29" target="eNobzMMhauN4BnxFjJXC-14">
          <mxGeometry width="160" relative="1" as="geometry">
            <mxPoint x="770" y="690" as="sourcePoint" />
            <mxPoint x="930" y="690" as="targetPoint" />
          </mxGeometry>
        </mxCell>
        <mxCell id="eNobzMMhauN4BnxFjJXC-37" value="MOON koppeling" style="html=1;outlineConnect=0;whiteSpace=wrap;fillColor=#99ffff;shape=mxgraph.archimate3.application;appType=func;archiType=rounded;" vertex="1" parent="1">
          <mxGeometry x="1310" y="970" width="150" height="75" as="geometry" />
        </mxCell>
        <mxCell id="eNobzMMhauN4BnxFjJXC-38" value="Signaal" style="html=1;outlineConnect=0;whiteSpace=wrap;fillColor=#99ffff;shape=mxgraph.archimate3.application;appType=passive;archiType=square;" vertex="1" parent="1">
          <mxGeometry x="370" y="960" width="150" height="75" as="geometry" />
        </mxCell>
        <mxCell id="eNobzMMhauN4BnxFjJXC-39" value="" style="edgeStyle=elbowEdgeStyle;html=1;endArrow=open;elbow=vertical;endFill=0;dashed=1;dashPattern=1 4;rounded=0;exitX=0;exitY=0.5;exitDx=0;exitDy=0;exitPerimeter=0;entryX=1;entryY=0.5;entryDx=0;entryDy=0;entryPerimeter=0;" edge="1" parent="1" source="eNobzMMhauN4BnxFjJXC-14" target="eNobzMMhauN4BnxFjJXC-38">
          <mxGeometry width="160" relative="1" as="geometry">
            <mxPoint x="770" y="780" as="sourcePoint" />
            <mxPoint x="930" y="780" as="targetPoint" />
          </mxGeometry>
        </mxCell>
        <mxCell id="eNobzMMhauN4BnxFjJXC-40" value="" style="edgeStyle=elbowEdgeStyle;html=1;endArrow=block;elbow=vertical;endFill=0;dashed=1;rounded=0;exitX=0.5;exitY=0;exitDx=0;exitDy=0;exitPerimeter=0;entryX=0.5;entryY=1;entryDx=0;entryDy=0;entryPerimeter=0;" edge="1" parent="1" source="eNobzMMhauN4BnxFjJXC-38" target="eNobzMMhauN4BnxFjJXC-9">
          <mxGeometry width="160" relative="1" as="geometry">
            <mxPoint x="770" y="780" as="sourcePoint" />
            <mxPoint x="930" y="780" as="targetPoint" />
          </mxGeometry>
        </mxCell>
        <mxCell id="eNobzMMhauN4BnxFjJXC-41" value="Signalen CRUD" style="html=1;outlineConnect=0;whiteSpace=wrap;fillColor=#ffff99;shape=mxgraph.archimate3.application;appType=serv;archiType=rounded;" vertex="1" parent="1">
          <mxGeometry x="640" y="440" width="150" height="75" as="geometry" />
        </mxCell>
        <mxCell id="eNobzMMhauN4BnxFjJXC-42" value="Signalen CRUD" style="html=1;outlineConnect=0;whiteSpace=wrap;fillColor=#ffff99;shape=mxgraph.archimate3.application;appType=proc;archiType=rounded;" vertex="1" parent="1">
          <mxGeometry x="640" y="560" width="150" height="75" as="geometry" />
        </mxCell>
        <mxCell id="eNobzMMhauN4BnxFjJXC-46" value="" style="ellipse;html=1;verticalLabelPosition=bottom;labelBackgroundColor=#ffffff;verticalAlign=top;fillColor=strokeColor" vertex="1" parent="1">
          <mxGeometry x="817" y="600" width="10" height="10" as="geometry" />
        </mxCell>
        <mxCell id="eNobzMMhauN4BnxFjJXC-47" value="" style="edgeStyle=elbowEdgeStyle;html=1;endArrow=none;elbow=vertical;rounded=0;exitX=1;exitY=0.5;exitDx=0;exitDy=0;entryX=0;entryY=0.75;entryDx=0;entryDy=0;entryPerimeter=0;" edge="1" parent="1" source="eNobzMMhauN4BnxFjJXC-46" target="eNobzMMhauN4BnxFjJXC-1">
          <mxGeometry width="160" relative="1" as="geometry">
            <mxPoint x="770" y="570" as="sourcePoint" />
            <mxPoint x="930" y="570" as="targetPoint" />
          </mxGeometry>
        </mxCell>
        <mxCell id="eNobzMMhauN4BnxFjJXC-48" value="" style="edgeStyle=elbowEdgeStyle;html=1;endArrow=none;elbow=vertical;rounded=0;exitX=1;exitY=0.5;exitDx=0;exitDy=0;entryX=0;entryY=0.5;entryDx=0;entryDy=0;entryPerimeter=0;" edge="1" parent="1" source="eNobzMMhauN4BnxFjJXC-46" target="eNobzMMhauN4BnxFjJXC-2">
          <mxGeometry width="160" relative="1" as="geometry">
            <mxPoint x="770" y="570" as="sourcePoint" />
            <mxPoint x="930" y="570" as="targetPoint" />
          </mxGeometry>
        </mxCell>
        <mxCell id="eNobzMMhauN4BnxFjJXC-49" value="" style="endArrow=block;html=1;endFill=1;startArrow=oval;startFill=1;edgeStyle=elbowEdgeStyle;elbow=vertical;rounded=0;exitX=0;exitY=0.5;exitDx=0;exitDy=0;entryX=1;entryY=0.5;entryDx=0;entryDy=0;entryPerimeter=0;" edge="1" parent="1" source="eNobzMMhauN4BnxFjJXC-46" target="eNobzMMhauN4BnxFjJXC-42">
          <mxGeometry width="160" relative="1" as="geometry">
            <mxPoint x="770" y="570" as="sourcePoint" />
            <mxPoint x="930" y="570" as="targetPoint" />
          </mxGeometry>
        </mxCell>
        <mxCell id="eNobzMMhauN4BnxFjJXC-50" value="Signalen gebruiker" style="html=1;outlineConnect=0;whiteSpace=wrap;fillColor=#ffff99;shape=mxgraph.archimate3.application;appType=interface;archiType=square;" vertex="1" parent="1">
          <mxGeometry x="880" y="365" width="150" height="75" as="geometry" />
        </mxCell>
        <mxCell id="eNobzMMhauN4BnxFjJXC-51" value="" style="endArrow=block;html=1;endFill=1;startArrow=oval;startFill=1;edgeStyle=elbowEdgeStyle;elbow=vertical;rounded=0;entryX=1;entryY=0.5;entryDx=0;entryDy=0;entryPerimeter=0;exitX=0;exitY=0.5;exitDx=0;exitDy=0;exitPerimeter=0;" edge="1" parent="1" source="eNobzMMhauN4BnxFjJXC-50" target="eNobzMMhauN4BnxFjJXC-41">
          <mxGeometry width="160" relative="1" as="geometry">
            <mxPoint x="820" y="530" as="sourcePoint" />
            <mxPoint x="930" y="570" as="targetPoint" />
          </mxGeometry>
        </mxCell>
      </root>
    </mxGraphModel>
  </diagram>
</mxfile>
